<svg width="63" height="63" viewBox="0 0 63 63" fill="none" xmlns="http://www.w3.org/2000/svg">
<g clip-path="url(#clip0_5_285)">
<mask id="mask0_5_285" style="mask-type:alpha" maskUnits="userSpaceOnUse" x="0" y="3" width="55" height="53">
<path d="M37.5121 44.2449H34.6265L54.3444 29.3363L52.9016 14.9086L48.5733 5.77108C38.9548 5.12985 19.5255 3.84738 18.7561 3.84738H3.84745L0.961914 43.2831L4.8093 55.3062L51.4589 54.3443L52.9016 52.9016L52.4207 50.9779L51.9398 46.1686L50.9779 45.2068H48.5733L47.1305 46.6496L43.7641 47.6114L41.3595 47.1305L39.4358 46.1686L37.5121 44.2449Z" fill="#D9D9D9"/>
</mask>
<g mask="url(#mask0_5_285)">
<path d="M6.24436 21.6948V9.50769H8.04217V14.7628H14.8877V9.50769H16.6855V21.6948H14.8877V16.2668H8.04217V21.6948H6.24436ZM22.5981 21.8504C21.8259 21.8504 21.1517 21.6717 20.5755 21.3145C19.9993 20.9572 19.5499 20.4386 19.2272 19.7587C18.916 19.0787 18.7604 18.272 18.7604 17.3385C18.7604 16.3935 18.916 15.5868 19.2272 14.9184C19.5499 14.25 19.9993 13.7372 20.5755 13.3799C21.1517 13.0111 21.8259 12.8267 22.5981 12.8267C23.3587 12.8267 24.0213 13.0169 24.586 13.3972C25.1507 13.7775 25.5253 14.2961 25.7097 14.953H25.5195L25.6924 12.9823H27.3865C27.3519 13.3396 27.3173 13.6968 27.2827 14.0541C27.2597 14.3998 27.2482 14.7398 27.2482 15.074V21.6948H25.5022V19.7587H25.6924C25.508 20.404 25.1277 20.9169 24.5515 21.2972C23.9868 21.666 23.3356 21.8504 22.5981 21.8504ZM23.0302 20.4847C23.7793 20.4847 24.3786 20.2196 24.828 19.6895C25.289 19.1594 25.5195 18.3757 25.5195 17.3385C25.5195 16.3013 25.289 15.5234 24.828 15.0048C24.3786 14.4747 23.7793 14.2097 23.0302 14.2097C22.2696 14.2097 21.6588 14.4747 21.1978 15.0048C20.7484 15.5234 20.5237 16.3013 20.5237 17.3385C20.5237 18.3757 20.7484 19.1594 21.1978 19.6895C21.6473 20.2196 22.2581 20.4847 23.0302 20.4847ZM33.4865 21.8504C32.6106 21.8504 31.8443 21.6717 31.1874 21.3145C30.542 20.9457 30.0407 20.4213 29.6834 19.7414C29.3377 19.0499 29.1648 18.2317 29.1648 17.2867C29.1648 16.3532 29.3435 15.5523 29.7007 14.8838C30.058 14.2154 30.5593 13.7083 31.2046 13.3626C31.85 13.0054 32.6106 12.8267 33.4865 12.8267C34.0512 12.8267 34.5986 12.9247 35.1287 13.1206C35.6588 13.305 36.0968 13.5701 36.4425 13.9158L35.872 15.1431C35.5494 14.832 35.1863 14.6015 34.783 14.4517C34.3796 14.2903 33.9878 14.2097 33.6075 14.2097C32.7777 14.2097 32.1266 14.4747 31.6541 15.0048C31.1816 15.535 30.9453 16.3013 30.9453 17.304C30.9453 18.3181 31.1816 19.096 31.6541 19.6377C32.1266 20.1793 32.7777 20.4501 33.6075 20.4501C33.9763 20.4501 34.3623 20.381 34.7657 20.2427C35.1691 20.0929 35.5378 19.8566 35.872 19.5339L36.4425 20.7613C36.0852 21.107 35.6358 21.3779 35.0941 21.5738C34.564 21.7582 34.0281 21.8504 33.4865 21.8504ZM38.1629 21.6948V8.97181H39.9089V16.7854H39.9434L43.7465 12.9823H45.9073L41.3091 17.5633L41.3264 16.7854L46.2876 21.6948H44.075L39.9434 17.7016H39.9089V21.6948H38.1629ZM6.26165 37.6948V25.5077H7.83473L12.5367 36.1044H12.0181L16.7201 25.5077H18.2759V37.6948H16.6509V27.9451H17.2214L12.8306 37.6948H11.7069L7.31613 27.9451H7.90388V37.6948H6.26165ZM20.6399 41.6188L20.2251 40.2013C20.7667 40.0861 21.2162 39.9478 21.5734 39.7865C21.9422 39.6251 22.2476 39.4119 22.4896 39.1469C22.7316 38.8933 22.9391 38.5649 23.1119 38.1615L23.5441 37.1416L23.5095 37.8504L19.7238 28.9823H21.5907L24.5294 36.2427H24.0627L27.0014 28.9823H28.7992L24.806 38.3171C24.5525 38.8933 24.2817 39.3773 23.9936 39.7692C23.7054 40.161 23.3943 40.4779 23.0601 40.7199C22.7259 40.9619 22.3571 41.1521 21.9537 41.2904C21.5504 41.4287 21.1124 41.5382 20.6399 41.6188ZM6.24436 52.6948V40.5077H8.04217V51.1563H14.0234V52.6948H6.24436ZM19.4406 52.8504C18.0346 52.8504 16.9282 52.4528 16.1215 51.6576C15.3148 50.8624 14.9115 49.7618 14.9115 48.3558C14.9115 47.4454 15.0843 46.6502 15.43 45.9703C15.7873 45.2903 16.2771 44.766 16.8994 44.3972C17.5333 44.0169 18.2651 43.8267 19.0948 43.8267C19.9131 43.8267 20.5988 43.9996 21.1519 44.3453C21.7051 44.6911 22.1257 45.1808 22.4139 45.8147C22.702 46.437 22.846 47.1746 22.846 48.0274V48.5806H16.2771V47.5779H21.6532L21.3594 47.8027C21.3594 46.9383 21.1635 46.2699 20.7716 45.7974C20.3913 45.3134 19.8381 45.0714 19.1121 45.0714C18.3054 45.0714 17.6831 45.3537 17.2451 45.9184C16.8072 46.4716 16.5883 47.238 16.5883 48.2175V48.3904C16.5883 49.4161 16.836 50.1882 17.3316 50.7068C17.8387 51.2254 18.5532 51.4847 19.4751 51.4847C19.9822 51.4847 20.4547 51.4156 20.8926 51.2773C21.3421 51.1275 21.7685 50.8854 22.1718 50.5512L22.7423 51.744C22.3389 52.1013 21.8492 52.3779 21.2729 52.5738C20.6967 52.7582 20.0859 52.8504 19.4406 52.8504ZM28.0562 52.8504C27.284 52.8504 26.6099 52.6717 26.0336 52.3145C25.4574 51.9572 25.008 51.4386 24.6853 50.7587C24.3741 50.0787 24.2185 49.272 24.2185 48.3385C24.2185 47.3935 24.3741 46.5868 24.6853 45.9184C25.008 45.25 25.4574 44.7372 26.0336 44.3799C26.6099 44.0111 27.284 43.8267 28.0562 43.8267C28.8168 43.8267 29.4795 44.0169 30.0441 44.3972C30.6088 44.7775 30.9834 45.2961 31.1678 45.953H30.9776L31.1505 43.9823H32.8446C32.81 44.3396 32.7754 44.6968 32.7409 45.0541C32.7178 45.3998 32.7063 45.7398 32.7063 46.074V52.6948H30.9603V50.7587H31.1505C30.9661 51.404 30.5858 51.9169 30.0096 52.2972C29.4449 52.666 28.7937 52.8504 28.0562 52.8504ZM28.4884 51.4847C29.2374 51.4847 29.8367 51.2196 30.2862 50.6895C30.7471 50.1594 30.9776 49.3757 30.9776 48.3385C30.9776 47.3013 30.7471 46.5234 30.2862 46.0048C29.8367 45.4747 29.2374 45.2097 28.4884 45.2097C27.7277 45.2097 27.1169 45.4747 26.656 46.0048C26.2065 46.5234 25.9818 47.3013 25.9818 48.3385C25.9818 49.3757 26.2065 50.1594 26.656 50.6895C27.1054 51.2196 27.7162 51.4847 28.4884 51.4847ZM37.5983 52.6948L33.8644 43.9823H35.7313L38.67 51.26H38.1687L41.1593 43.9823H42.9398L39.1886 52.6948H37.5983ZM48.0709 52.8504C46.6649 52.8504 45.5585 52.4528 44.7518 51.6576C43.9451 50.8624 43.5418 49.7618 43.5418 48.3558C43.5418 47.4454 43.7146 46.6502 44.0604 45.9703C44.4176 45.2903 44.9074 44.766 45.5297 44.3972C46.1636 44.0169 46.8954 43.8267 47.7251 43.8267C48.5434 43.8267 49.2291 43.9996 49.7823 44.3453C50.3354 44.6911 50.7561 45.1808 51.0442 45.8147C51.3323 46.437 51.4763 47.1746 51.4763 48.0274V48.5806H44.9074V47.5779H50.2836L49.9897 47.8027C49.9897 46.9383 49.7938 46.2699 49.4019 45.7974C49.0216 45.3134 48.4685 45.0714 47.7424 45.0714C46.9357 45.0714 46.3134 45.3537 45.8755 45.9184C45.4375 46.4716 45.2186 47.238 45.2186 48.2175V48.3904C45.2186 49.4161 45.4664 50.1882 45.9619 50.7068C46.469 51.2254 47.1835 51.4847 48.1054 51.4847C48.6125 51.4847 49.085 51.4156 49.523 51.2773C49.9724 51.1275 50.3988 50.8854 50.8022 50.5512L51.3726 51.744C50.9693 52.1013 50.4795 52.3779 49.9033 52.5738C49.327 52.7582 48.7162 52.8504 48.0709 52.8504Z" fill="#0F172A"/>
</g>
<path d="M45.518 33.8002L44.166 29.9695L48.6727 29.7442L49.574 32.6735L48.4474 33.1242L45.518 33.8002Z" fill="#D3FFAF"/>
<circle cx="35.5133" cy="27.4126" r="4.80923" stroke="black" stroke-width="0.961846" stroke-linecap="round" stroke-linejoin="round"/>
<path d="M35.5132 37.512L32.6276 39.4357C34.391 39.9166 37.9178 41.2632 37.9178 42.8022C37.9178 44.7259 36.475 45.2068 34.5513 44.2449C32.6276 43.2831 29.7421 43.2831 28.2993 41.3594C26.8566 39.4357 29.2612 34.1456 35.5132 32.7028C40.5148 31.5486 44.6507 36.7105 46.0935 39.4357" stroke="black" stroke-width="0.961846" stroke-linecap="round" stroke-linejoin="round"/>
<path d="M37.9175 44.2449C39.3603 46.4892 43.4962 49.8236 48.4978 45.2068C51.3833 42.3212 51.8643 39.9166 53.7879 41.3594C55.3269 42.5136 56.3529 46.9702 56.6735 49.0542C56.8338 49.8557 57.7315 51.074 60.0399 49.5351C62.9255 47.6114 61.9636 45.6877 59.559 45.2068C59.2384 44.5655 58.2124 42.3212 56.6735 38.4738C54.7498 33.6646 45.1313 39.9166 42.7267 42.3212" stroke="black" stroke-width="0.961846" stroke-linecap="round" stroke-linejoin="round"/>
<path d="M48.498 45.2068C49.2996 45.0465 50.9988 44.822 51.3836 45.2068C51.8645 45.6877 52.3454 50.4969 52.3454 51.4588C52.3454 52.4206 56.6737 53.3825 58.1165 52.4206C59.5593 51.4588 59.0784 50.9779 57.1547 50.016" stroke="black" stroke-width="0.961846" stroke-linecap="round" stroke-linejoin="round"/>
<path d="M42.7271 34.6265L44.1698 31.26" stroke="black" stroke-width="0.961846" stroke-linecap="round" stroke-linejoin="round"/>
<path d="M45.6128 37.9929L47.5365 33.6646" stroke="black" stroke-width="0.961846" stroke-linecap="round" stroke-linejoin="round"/>
<path d="M45.6126 34.1456L43.208 28.3745L47.5363 26.9317L49.46 32.7028L45.6126 34.1456Z" stroke="black" stroke-width="0.961846" stroke-linecap="round" stroke-linejoin="round"/>
<path d="M44.1699 29.8172H48.4982" stroke="black" stroke-width="0.961846" stroke-linecap="round" stroke-linejoin="round"/>
<path d="M45.6126 27.4126L44.6507 24.5271L42.2461 24.0462" stroke="black" stroke-width="0.961846" stroke-linecap="round" stroke-linejoin="round"/>
<path d="M35.5127 26.9317C36.3142 27.2523 38.0135 27.5088 38.3982 25.9698" stroke="black" stroke-width="0.961846" stroke-linecap="round" stroke-linejoin="round"/>
</g>
<defs>
<clipPath id="clip0_5_285">
<rect width="62.52" height="62.52" fill="white"/>
</clipPath>
</defs>
</svg>
